<svg width="32" height="32" viewBox="0 0 32 32" fill="none" xmlns="http://www.w3.org/2000/svg">
<path d="M23.2 27.2H24.45L23.7 26.15C23.15 25.35 22.75 24.4 22.55 23.15C26.1 21.55 28 18.55 28 14.6C28 8.54999 23.45 4.79999 16.1 4.79999C8.74999 4.79999 4.2 8.54999 4.2 14.6C4.2 20.7 8.64999 24.4 16.1 24.4C16.25 24.4 16.45 24.4 16.6 24.4C17.8 25.7 19.8 27.2 23.2 27.2ZM16.2 6.09999C22.85 6.09999 26.8 9.24999 26.8 14.6C26.8 19.15 24 21.2 21.7 22.15L21.25 22.35L21.3 22.85C21.45 24 21.7 25 22.1 25.85C19.7 25.55 18.3 24.35 17.55 23.35L17.35 23.1H16.9C16.7 23.1 16.45 23.1 16.25 23.1C6.7 23.1 5.64999 17.15 5.64999 14.6C5.59999 9.29999 9.55 6.09999 16.2 6.09999Z" fill="white"/>
</svg>
